<?xml version="1.0" encoding="utf-8"?>
<!-- Svg Vector Icons : http://www.onlinewebfonts.com/icon -->
<!DOCTYPE svg PUBLIC "-//W3C//DTD SVG 1.1//EN" "http://www.w3.org/Graphics/SVG/1.1/DTD/svg11.dtd">
<svg version="1.1" xmlns="http://www.w3.org/2000/svg" xmlns:xlink="http://www.w3.org/1999/xlink" x="0px" y="0px" viewBox="0 0 1000 1000" enable-background="new 0 0 1000 1000" xml:space="preserve">
<metadata> Svg Vector Icons : http://www.onlinewebfonts.com/icon </metadata>
<g><g transform="translate(0.000000,511.000000) scale(0.100000,-0.100000)"><path d="M6102.5,5015.5c-93.6-256.7-179.9-678.9-206.3-1012.4l-21.6-266.3l-1377-1374.6L3122.9,990.1l-167.9,24c-357.4,52.8-1029.2-4.8-1508.9-127.2l-115.2-28.8l930.8-930.8l933.2-933.2L1808.3-2392.5L421.7-3779.1l-163.1-508.6c-91.2-280.7-163.1-508.6-158.3-508.6c2.4,0,232.7,76.8,506.2,170.3l501.4,167.9L2492-3073.8l1386.6,1384.2l933.2-933.2L5745-3556l38.4,122.3c19.2,69.6,60,261.5,88.8,429.4c43.2,266.3,50.4,371.8,40.8,779.7l-12,470.2L7270.8-386.9L8640.5,980.5l215.9,16.8c119.9,9.6,302.3,31.2,407.8,50.4c227.9,43.2,635.7,153.5,635.7,175.1c0,7.2-851.6,873.2-1892.8,1921.6C6711.8,4449.4,6109.6,5039.5,6102.5,5015.5z"/></g></g>
</svg>