<svg id="menusvgExa" width="100px" height="100px" viewBox="0 4.6875  100 78.125"><g id="menusvgExaGlobal"><g id="menusvgExa0" class="trait"><path d="M 0,4.687499999999993 100,4.687499999999993" fill="none" stroke-width="12.500000000000002" stroke-dasharray="none" stroke-opacity="1" stroke-linecap="butt" stroke-linejoin="miter" stroke-miterlimit="4" stroke="rgb(207, 164, 207)" transform="" style="cursor: pointer;"></path></g><g id="menusvgExa1" class="trait"><path d="M 0,20.312499999999993 100,20.312499999999993" fill="none" stroke-width="12.500000000000002" stroke-dasharray="none" stroke-opacity="1" stroke-linecap="butt" stroke-linejoin="miter" stroke-miterlimit="4" stroke="rgb(242, 238, 246)" transform="" style="cursor: pointer;"></path></g><g id="menusvgExa2" class="trait"><path d="M 0,35.9375 100,35.9375" fill="none" stroke-width="12.500000000000002" stroke-dasharray="none" stroke-opacity="1" stroke-linecap="butt" stroke-linejoin="miter" stroke-miterlimit="4" stroke="rgb(222, 37, 123)" transform="" style="cursor: pointer;"></path></g><g id="menusvgExa3" class="trait"><path d="M 0,51.5625 33.333333333333336,51.5625" fill="none" stroke-width="12.500000000000002" stroke-dasharray="none" stroke-opacity="1" stroke-linecap="butt" stroke-linejoin="miter" stroke-miterlimit="4" stroke="rgb(240, 235, 244)" transform="" style="cursor: pointer;"></path><path d="M3.82-3.50L5.86 0L7.63 0L4.72-4.51L7.30-8.43L5.63-8.43L3.89-5.41L3.82-5.41L2.10-8.43L0.37-8.43L2.96-4.45L0.03 0L1.70 0L3.76-3.50Z" fill="none" stroke-width="1" stroke-dasharray="none" stroke-opacity="1" stroke-linecap="butt" stroke-linejoin="miter" stroke-miterlimit="4" stroke="rgb(210, 24, 101)" transform="translate(50 57.8125)" style="cursor: pointer;"></path><path d="M 66.66666666666667,51.5625 100,51.5625" fill="none" stroke-width="12.500000000000002" stroke-dasharray="none" stroke-opacity="1" stroke-linecap="butt" stroke-linejoin="miter" stroke-miterlimit="4" stroke="rgb(214, 118, 184)" transform="" style="cursor: pointer;"></path></g><g id="menusvgExa4" class="trait"><path d="M 0,67.1875 100,67.1875" fill="none" stroke-width="12.500000000000002" stroke-dasharray="none" stroke-opacity="1" stroke-linecap="butt" stroke-linejoin="miter" stroke-miterlimit="4" stroke="rgb(209, 171, 211)" transform="" style="cursor: pointer;"></path><path d="M6.85-4.22C6.85-2.02 6.08-0.99 4.67-0.99C3.26-0.99 2.50-2.02 2.50-4.21C2.50-6.42 3.28-7.44 4.69-7.44C6.08-7.44 6.85-6.42 6.85-4.22ZM0.91-4.21C0.91-1.54 2.27 0.19 4.67 0.19C7.06 0.19 8.43-1.62 8.43-4.22C8.43-6.90 7.09-8.62 4.69-8.62C2.29-8.62 0.91-6.82 0.91-4.21Z" fill="none" stroke-width="1" stroke-dasharray="none" stroke-opacity="1" stroke-linecap="butt" stroke-linejoin="miter" stroke-miterlimit="4" stroke="rgb(244, 240, 247)" transform="translate(50 69.6375)" style="cursor: pointer;"></path></g><g id="menusvgExa5" class="trait"><path d="M 0,82.8125 33.333333333333336,82.8125" fill="none" stroke-width="12.500000000000002" stroke-dasharray="none" stroke-opacity="1" stroke-linecap="butt" stroke-linejoin="miter" stroke-miterlimit="4" stroke="rgb(211, 178, 215)" transform="" style="cursor: pointer;"></path><path d="M 66.66666666666667,82.8125 100,82.8125" fill="none" stroke-width="12.500000000000002" stroke-dasharray="none" stroke-opacity="1" stroke-linecap="butt" stroke-linejoin="miter" stroke-miterlimit="4" stroke="rgb(227, 61, 148)" transform="" style="cursor: pointer;"></path></g></g></svg>